<svg xmlns="http://www.w3.org/2000/svg" xmlns:xlink="http://www.w3.org/1999/xlink" width="861" zoomAndPan="magnify" viewBox="0 0 645.75 152.249993" height="203" preserveAspectRatio="xMidYMid meet" version="1.2"><defs/><g id="ed41d5b19b"><path style=" stroke:none;fill-rule:nonzero;fill:#0f0f0f;fill-opacity:1;" d="M 152.058594 110.140625 L 152.058594 87.894531 L 152.234375 87.894531 L 166.570312 110.140625 L 183.183594 110.140625 L 165.953125 86.359375 L 180.957031 66.714844 L 185.953125 60.128906 L 169.515625 60.128906 L 164.703125 66.691406 L 152.234375 86.011719 L 152.058594 86.011719 L 152.058594 25.902344 L 138.207031 29.472656 L 138.207031 110.140625 Z M 152.058594 110.140625 "/><path style=" stroke:none;fill-rule:nonzero;fill:#0f0f0f;fill-opacity:1;" d="M 199.109375 110.140625 L 199.109375 88.664062 C 199.109375 84.855469 199.953125 81.847656 201.640625 79.636719 C 203.324219 77.425781 205.667969 76.320312 208.664062 76.320312 C 210.136719 76.320312 215.921875 76.320312 226.015625 76.320312 L 226.015625 65.164062 C 216.613281 65.164062 211.65625 65.164062 211.152344 65.164062 C 205.480469 65.164062 201.464844 67.421875 199.28125 73.511719 L 199.109375 73.511719 L 199.109375 65.164062 L 185.324219 65.164062 L 185.324219 110.140625 Z M 199.109375 110.140625 "/><path style=" stroke:none;fill-rule:nonzero;fill:#0f0f0f;fill-opacity:1;" d="M 225.957031 131.558594 C 234.746094 131.558594 241.324219 125.691406 245.691406 113.957031 L 263.851562 65.164062 L 250.1875 65.164062 L 241.761719 92.738281 C 241.0625 95 240.582031 96.988281 240.320312 98.691406 L 240.148438 98.691406 C 239.855469 96.367188 239.449219 94.355469 238.925781 92.648438 L 230.894531 66.179688 C 230.710938 65.578125 230.15625 65.164062 229.527344 65.164062 L 215.308594 65.164062 L 233.46875 110.25 L 231.109375 115.851562 C 229.714844 119.234375 227.238281 120.925781 223.6875 120.925781 C 221.535156 120.925781 219.542969 120.382812 217.707031 119.292969 L 217.707031 130.410156 C 219.863281 131.175781 222.613281 131.558594 225.957031 131.558594 Z M 225.957031 131.558594 "/><path style=" stroke:none;fill-rule:nonzero;fill:#0f0f0f;fill-opacity:1;" d="M 274.210938 112.996094 C 276.941406 112.996094 279.574219 112.722656 282.109375 112.171875 C 284.648438 111.621094 286.886719 110.746094 288.832031 109.542969 C 290.773438 108.34375 292.332031 106.785156 293.503906 104.867188 C 294.675781 102.953125 295.261719 100.644531 295.261719 97.945312 C 295.261719 96.011719 294.972656 94.351562 294.394531 92.957031 C 293.816406 91.558594 292.984375 90.34375 291.902344 89.304688 C 290.820312 88.265625 289.519531 87.359375 288.007812 86.585938 C 286.496094 85.816406 284.804688 85.101562 282.933594 84.449219 C 281.894531 84.09375 280.851562 83.746094 279.796875 83.402344 C 278.742188 83.0625 277.785156 82.675781 276.925781 82.246094 C 276.066406 81.8125 275.367188 81.300781 274.835938 80.707031 C 274.300781 80.113281 274.015625 79.757812 274.015625 78.925781 C 274.015625 78.304688 274.210938 77.835938 274.566406 77.34375 C 274.921875 76.855469 275.414062 76.453125 276.035156 76.140625 C 276.660156 75.828125 277.378906 75.59375 278.195312 75.429688 C 279.011719 75.265625 279.878906 75.183594 280.796875 75.183594 L 292.503906 75.183594 L 292.503906 65.164062 L 280.21875 65.164062 C 277.636719 65.164062 275.152344 65.441406 272.765625 65.988281 C 270.375 66.539062 268.253906 67.398438 266.402344 68.574219 C 264.546875 69.746094 263.0625 71.253906 261.949219 73.09375 C 260.839844 74.933594 260.28125 77.128906 260.28125 79.683594 C 260.28125 81.554688 260.527344 83.171875 261.015625 84.539062 C 261.503906 85.902344 262.21875 87.105469 263.152344 88.144531 C 264.085938 89.183594 265.242188 90.097656 266.625 90.882812 C 268.003906 91.671875 269.597656 92.40625 271.40625 93.089844 C 272.535156 93.535156 273.707031 93.933594 274.921875 94.292969 C 276.140625 94.648438 277.261719 95.046875 278.285156 95.492188 C 279.308594 95.9375 280.144531 96.457031 280.796875 97.050781 C 281.449219 97.644531 281.777344 98.390625 281.777344 99.28125 C 281.777344 100.675781 281.058594 101.714844 279.617188 102.398438 C 278.179688 103.078125 276.214844 103.421875 273.722656 103.421875 C 271.675781 103.421875 269.5 103.078125 267.203125 102.398438 C 264.902344 101.714844 262.597656 100.675781 260.28125 99.28125 L 260.28125 110.679688 C 264.554688 112.222656 269.199219 112.996094 274.210938 112.996094 Z M 274.210938 112.996094 "/><path style=" stroke:none;fill-rule:nonzero;fill:#0f0f0f;fill-opacity:1;" d="M 312.355469 111.570312 C 316.507812 111.570312 319.613281 111.023438 321.675781 109.9375 L 321.675781 99.621094 C 320.113281 100.472656 318.597656 100.898438 317.125 100.898438 C 313.386719 100.898438 311.515625 98.546875 311.515625 93.84375 L 311.515625 75.175781 L 321.675781 75.175781 L 321.675781 65.164062 L 311.515625 65.164062 L 311.515625 51.601562 L 297.597656 55.570312 L 297.597656 65.164062 L 290.265625 65.164062 L 290.265625 75.175781 L 297.597656 75.175781 L 297.597656 96.269531 C 297.597656 106.46875 302.515625 111.570312 312.355469 111.570312 Z M 312.355469 111.570312 "/><path style=" stroke:none;fill-rule:nonzero;fill:#0f0f0f;fill-opacity:1;" d="M 344.589844 63.738281 C 357.394531 63.738281 363.796875 70.128906 363.796875 82.910156 L 363.796875 109.757812 L 350.683594 109.757812 L 350.683594 103.308594 L 350.507812 103.308594 L 350.417969 103.457031 C 347.410156 108.390625 342.980469 110.855469 337.136719 110.855469 C 332.78125 110.855469 329.351562 109.617188 326.851562 107.148438 C 324.355469 104.675781 323.105469 101.378906 323.105469 97.253906 C 323.105469 88.539062 328.261719 83.507812 338.582031 82.164062 L 350.773438 80.539062 L 350.773438 80.394531 C 350.71875 75.578125 348.058594 73.171875 342.792969 73.171875 C 337.441406 73.171875 332.355469 74.765625 327.53125 77.953125 L 327.53125 67.511719 L 327.675781 67.4375 C 329.589844 66.472656 332.183594 65.621094 335.449219 64.878906 C 338.792969 64.117188 341.84375 63.738281 344.589844 63.738281 Z M 350.773438 88.480469 L 342.617188 89.535156 L 342.476562 89.550781 C 338.066406 90.160156 335.863281 92.1875 335.863281 95.632812 C 335.863281 97.210938 336.410156 98.503906 337.507812 99.515625 C 338.605469 100.523438 340.089844 101.027344 341.957031 101.027344 C 344.5625 101.027344 346.679688 100.128906 348.316406 98.328125 C 349.953125 96.53125 350.773438 94.257812 350.773438 91.507812 Z M 350.773438 88.480469 "/><path style=" stroke:none;fill-rule:nonzero;fill:#0f0f0f;fill-opacity:1;" d="M 379.277344 111.570312 C 381.664062 111.570312 383.363281 111.414062 385.210938 110.878906 L 385.210938 99.445312 L 384.828125 99.445312 C 383.054688 99.675781 382.359375 99.675781 380.894531 99.675781 C 380.046875 99.675781 379.507812 98.832031 379.507812 97.835938 L 379.507812 42.320312 L 365.9375 42.320312 L 365.9375 99.371094 C 365.9375 107.347656 370.175781 111.570312 379.277344 111.570312 Z M 379.277344 111.570312 "/><path style=" stroke:none;fill-rule:evenodd;fill:#4dd1d6;fill-opacity:1;" d="M 69.882812 84.0625 C 71.242188 84.039062 72.367188 85.121094 72.390625 86.480469 L 73.027344 121.003906 C 73.050781 122.191406 72.21875 123.226562 71.050781 123.460938 L 57.140625 126.253906 C 56.707031 126.34375 56.253906 126.308594 55.832031 126.160156 C 54.550781 125.703125 53.882812 124.296875 54.339844 123.015625 L 67.609375 85.699219 C 67.953125 84.734375 68.859375 84.082031 69.882812 84.0625 Z M 77.917969 84.976562 C 78.917969 84.054688 80.476562 84.121094 81.398438 85.121094 L 103.519531 109.175781 C 103.835938 109.519531 104.046875 109.941406 104.128906 110.398438 C 104.375 111.734375 103.492188 113.019531 102.15625 113.265625 L 80.550781 117.234375 C 80.417969 117.257812 80.285156 117.269531 80.152344 117.273438 C 78.792969 117.296875 77.671875 116.21875 77.644531 114.859375 L 77.125 86.832031 C 77.109375 86.128906 77.402344 85.453125 77.917969 84.976562 Z M 85.890625 75.054688 L 119.707031 82.023438 C 120.976562 82.285156 121.828125 83.484375 121.648438 84.769531 L 118.042969 110.980469 C 117.859375 112.328125 116.617188 113.269531 115.269531 113.082031 C 114.699219 113.003906 114.171875 112.726562 113.785156 112.300781 L 83.574219 79.121094 C 82.660156 78.117188 82.730469 76.5625 83.738281 75.644531 C 84.320312 75.117188 85.121094 74.894531 85.890625 75.054688 Z M 64.402344 79.472656 C 64.527344 79.949219 64.503906 80.453125 64.339844 80.914062 L 53.578125 111.316406 C 53.125 112.597656 51.71875 113.269531 50.4375 112.8125 C 50.101562 112.695312 49.796875 112.503906 49.542969 112.257812 L 27.175781 90.503906 C 26.203125 89.554688 26.179688 87.996094 27.128906 87.023438 C 27.441406 86.703125 27.835938 86.472656 28.273438 86.359375 L 61.398438 77.710938 C 62.714844 77.371094 64.058594 78.15625 64.402344 79.472656 Z M 14.9375 50.941406 C 15.421875 49.671875 16.84375 49.035156 18.113281 49.519531 L 64.898438 67.40625 C 65.640625 67.691406 66.199219 68.316406 66.398438 69.089844 C 66.742188 70.402344 65.953125 71.746094 64.636719 72.089844 L 15.375 84.890625 C 15.109375 84.957031 14.832031 84.980469 14.558594 84.960938 C 13.203125 84.851562 12.195312 83.664062 12.304688 82.308594 L 14.78125 51.621094 C 14.800781 51.386719 14.855469 51.160156 14.9375 50.941406 Z M 108.128906 35.839844 C 108.582031 36.203125 108.890625 36.710938 109.003906 37.277344 L 116.039062 72.429688 C 116.304688 73.761719 115.441406 75.058594 114.109375 75.324219 C 113.785156 75.390625 113.453125 75.390625 113.128906 75.324219 L 82.914062 69.121094 C 81.582031 68.847656 80.722656 67.546875 80.996094 66.214844 C 81.078125 65.832031 81.242188 65.476562 81.488281 65.171875 L 104.667969 36.222656 C 105.519531 35.160156 107.066406 34.992188 108.128906 35.839844 Z M 72.40625 29.488281 C 72.625 29.863281 72.738281 30.289062 72.738281 30.726562 L 72.738281 62.742188 C 72.738281 64.101562 71.636719 65.203125 70.277344 65.203125 C 69.976562 65.203125 69.679688 65.148438 69.398438 65.039062 L 36.195312 52.316406 C 34.925781 51.828125 34.289062 50.40625 34.777344 49.136719 C 34.976562 48.613281 35.351562 48.171875 35.835938 47.890625 L 69.039062 28.597656 C 70.214844 27.914062 71.722656 28.3125 72.40625 29.488281 Z M 77.144531 20 C 77.601562 18.71875 79.007812 18.046875 80.289062 18.503906 L 102.296875 26.328125 C 102.554688 26.417969 102.796875 26.554688 103.011719 26.726562 C 104.070312 27.578125 104.242188 29.125 103.390625 30.1875 L 81.386719 57.648438 C 80.917969 58.230469 80.210938 58.570312 79.464844 58.570312 C 78.105469 58.570312 77.003906 57.46875 77.003906 56.109375 L 77.003906 20.824219 C 77.003906 20.542969 77.050781 20.261719 77.144531 20 Z M 77.144531 20 "/><g style="fill:#000000;fill-opacity:1;"><g transform="translate(401.745532, 110.54357)"><path style="stroke:none" d="M 27.75 0.921875 C 23.476562 0.921875 19.644531 -0.046875 16.25 -1.984375 C 12.863281 -3.929688 10.191406 -6.796875 8.234375 -10.578125 C 6.273438 -14.367188 5.296875 -18.894531 5.296875 -24.15625 C 5.296875 -29.4375 6.273438 -33.96875 8.234375 -37.75 C 10.191406 -41.539062 12.863281 -44.40625 16.25 -46.34375 C 19.644531 -48.289062 23.476562 -49.265625 27.75 -49.265625 C 32.863281 -49.265625 36.929688 -48.300781 39.953125 -46.375 C 42.972656 -44.445312 45.15625 -41.875 46.5 -38.65625 L 41.640625 -35.15625 L 40.765625 -35.15625 C 39.453125 -37.8125 37.765625 -39.757812 35.703125 -41 C 33.640625 -42.238281 30.988281 -42.859375 27.75 -42.859375 C 24.769531 -42.859375 22.15625 -42.15625 19.90625 -40.75 C 17.65625 -39.351562 15.90625 -37.253906 14.65625 -34.453125 C 13.414062 -31.648438 12.796875 -28.21875 12.796875 -24.15625 C 12.796875 -20.125 13.421875 -16.710938 14.671875 -13.921875 C 15.929688 -11.128906 17.679688 -9.023438 19.921875 -7.609375 C 22.160156 -6.191406 24.769531 -5.484375 27.75 -5.484375 C 31.101562 -5.484375 33.882812 -6.238281 36.09375 -7.75 C 38.300781 -9.269531 40.03125 -11.671875 41.28125 -14.953125 L 42.203125 -14.953125 L 46.90625 -12.1875 C 45.644531 -8.125 43.398438 -4.921875 40.171875 -2.578125 C 36.941406 -0.242188 32.800781 0.921875 27.75 0.921875 Z M 27.75 0.921875 "/></g></g><g style="fill:#000000;fill-opacity:1;"><g transform="translate(446.105217, 110.54357)"><path style="stroke:none" d="M 19.234375 0.921875 C 15.816406 0.921875 13.128906 -0.046875 11.171875 -1.984375 C 9.210938 -3.929688 8.234375 -6.832031 8.234375 -10.6875 L 8.234375 -67.765625 L 15.390625 -67.765625 L 15.390625 -11.171875 C 15.390625 -9.160156 15.773438 -7.707031 16.546875 -6.8125 C 17.316406 -5.925781 18.519531 -5.484375 20.15625 -5.484375 C 21.15625 -5.484375 22.164062 -5.644531 23.1875 -5.96875 L 23.796875 -5.78125 L 24.640625 -0.171875 C 24.109375 0.171875 23.351562 0.4375 22.375 0.625 C 21.394531 0.820312 20.347656 0.921875 19.234375 0.921875 Z M 19.234375 0.921875 "/></g></g><g style="fill:#000000;fill-opacity:1;"><g transform="translate(466.927637, 110.54357)"><path style="stroke:none" d="M 27.75 0.921875 C 23.1875 0.921875 19.21875 -0.0390625 15.84375 -1.96875 C 12.46875 -3.894531 9.863281 -6.734375 8.03125 -10.484375 C 6.207031 -14.242188 5.296875 -18.800781 5.296875 -24.15625 C 5.296875 -29.5 6.207031 -34.054688 8.03125 -37.828125 C 9.863281 -41.597656 12.46875 -44.445312 15.84375 -46.375 C 19.21875 -48.300781 23.1875 -49.265625 27.75 -49.265625 C 32.300781 -49.265625 36.265625 -48.300781 39.640625 -46.375 C 43.015625 -44.445312 45.613281 -41.597656 47.4375 -37.828125 C 49.269531 -34.054688 50.1875 -29.5 50.1875 -24.15625 C 50.1875 -18.800781 49.269531 -14.242188 47.4375 -10.484375 C 45.613281 -6.734375 43.015625 -3.894531 39.640625 -1.96875 C 36.265625 -0.0390625 32.300781 0.921875 27.75 0.921875 Z M 27.75 -5.484375 C 32.570312 -5.484375 36.257812 -7 38.8125 -10.03125 C 41.363281 -13.070312 42.640625 -17.78125 42.640625 -24.15625 C 42.640625 -30.550781 41.363281 -35.265625 38.8125 -38.296875 C 36.257812 -41.335938 32.570312 -42.859375 27.75 -42.859375 C 22.925781 -42.859375 19.226562 -41.332031 16.65625 -38.28125 C 14.082031 -35.226562 12.796875 -30.519531 12.796875 -24.15625 C 12.796875 -17.78125 14.082031 -13.070312 16.65625 -10.03125 C 19.226562 -7 22.925781 -5.484375 27.75 -5.484375 Z M 27.75 -5.484375 "/></g></g><g style="fill:#000000;fill-opacity:1;"><g transform="translate(516.941519, 110.54357)"><path style="stroke:none" d="M 23.890625 0.921875 C 18.421875 0.921875 14.347656 -0.523438 11.671875 -3.421875 C 9.003906 -6.316406 7.671875 -10.550781 7.671875 -16.125 L 7.671875 -48.34375 L 14.8125 -48.34375 L 14.8125 -16.3125 C 14.8125 -8.96875 18.257812 -5.296875 25.15625 -5.296875 C 29.539062 -5.296875 33.003906 -6.726562 35.546875 -9.59375 C 38.085938 -12.457031 39.359375 -17.101562 39.359375 -23.53125 L 39.359375 -48.34375 L 46.5 -48.34375 L 46.5 0 L 39.75 0 L 39.75 -7.578125 L 38.828125 -7.796875 C 37.160156 -4.847656 35.164062 -2.65625 32.84375 -1.21875 C 30.519531 0.207031 27.535156 0.921875 23.890625 0.921875 Z M 23.890625 0.921875 "/></g></g><g style="fill:#000000;fill-opacity:1;"><g transform="translate(566.385602, 110.54357)"><path style="stroke:none" d="M 25.078125 0.921875 C 21.179688 0.921875 17.75 -0.00390625 14.78125 -1.859375 C 11.820312 -3.710938 9.5 -6.507812 7.8125 -10.25 C 6.132812 -13.988281 5.296875 -18.625 5.296875 -24.15625 C 5.296875 -29.675781 6.171875 -34.3125 7.921875 -38.0625 C 9.679688 -41.820312 12.101562 -44.628906 15.1875 -46.484375 C 18.269531 -48.335938 21.84375 -49.265625 25.90625 -49.265625 C 29.113281 -49.265625 32.003906 -48.65625 34.578125 -47.4375 C 37.148438 -46.226562 39.359375 -44.238281 41.203125 -41.46875 L 42.125 -41.640625 L 42.125 -67.765625 L 49.265625 -67.765625 L 49.265625 0 L 42.125 0 L 42.125 -7.0625 L 41.203125 -7.234375 C 39.617188 -4.835938 37.472656 -2.878906 34.765625 -1.359375 C 32.066406 0.160156 28.835938 0.921875 25.078125 0.921875 Z M 27.3125 -5.484375 C 31.8125 -5.484375 35.40625 -7.023438 38.09375 -10.109375 C 40.78125 -13.191406 42.125 -17.875 42.125 -24.15625 C 42.125 -30.46875 40.78125 -35.160156 38.09375 -38.234375 C 35.40625 -41.316406 31.8125 -42.859375 27.3125 -42.859375 C 22.664062 -42.859375 19.082031 -41.351562 16.5625 -38.34375 C 14.050781 -35.34375 12.796875 -30.613281 12.796875 -24.15625 C 12.796875 -11.707031 17.632812 -5.484375 27.3125 -5.484375 Z M 27.3125 -5.484375 "/></g></g></g></svg>