<svg width="473" height="144" viewBox="0 0 473 144" fill="none" xmlns="http://www.w3.org/2000/svg">
<path fill-rule="evenodd" clip-rule="evenodd" d="M176.966 116.212V88.0427H177.188L195.337 116.212H216.373L194.56 86.1019L213.556 61.2287L219.883 52.8881H199.07L192.976 61.1968L177.188 85.6583H176.966V9.55029L159.427 14.0698V116.212H176.966ZM236.539 116.212V89.0176C236.539 84.198 237.607 80.3886 239.743 77.5894C241.879 74.7903 244.843 73.3908 248.636 73.3908H262.739L280.044 116.351L277.059 123.444C275.29 127.727 272.158 129.868 267.662 129.868C264.935 129.868 262.411 129.179 260.089 127.801V141.877C262.816 142.845 266.298 143.329 270.536 143.329C281.665 143.329 289.993 135.9 295.521 121.042L318.515 59.2654H301.214L290.546 94.1756C289.661 97.0429 289.053 99.5564 288.722 101.716H288.501C288.132 98.7744 287.616 96.2236 286.953 94.0639L276.785 60.5484C276.553 59.7864 275.851 59.2654 275.055 59.2654H270.608H257.049H251.788C244.608 59.2654 239.522 62.1201 236.76 69.8316H236.539V59.2654H219.085V116.212H236.539ZM331.633 119.827C335.089 119.827 338.423 119.48 341.635 118.784C344.847 118.089 347.684 116.98 350.144 115.457C352.605 113.935 354.577 111.961 356.061 109.536C357.545 107.112 358.287 104.189 358.287 100.768C358.287 98.3243 357.921 96.2191 357.188 94.4523C356.456 92.6854 355.404 91.1441 354.033 89.8283C352.661 88.5126 351.018 87.366 349.102 86.3886C347.186 85.4112 345.045 84.509 342.678 83.6819C341.363 83.2308 340.039 82.7891 338.705 82.3568C337.372 81.9245 336.16 81.4358 335.071 80.8907C333.981 80.3456 333.098 79.6971 332.422 78.9452C331.746 78.1934 331.384 77.7427 331.384 76.6901C331.384 75.9006 331.633 75.3058 332.084 74.6855C332.535 74.0652 333.155 73.5577 333.944 73.163C334.733 72.7682 335.644 72.4675 336.677 72.2607C337.71 72.054 338.809 71.9506 339.973 71.9506H354.793V71.9424H361.245V98.6466C361.245 111.562 367.473 118.02 379.929 118.02C385.187 118.02 389.121 117.331 391.732 115.954V102.89C389.755 103.969 387.835 104.509 385.97 104.509C381.234 104.509 378.866 101.531 378.866 95.576V71.9424H391.732V59.2654H378.866V42.0911L361.245 47.1158V59.2654H351.96L339.241 59.2654C335.972 59.2654 332.826 59.6131 329.802 60.3086C326.778 61.0041 324.092 62.0942 321.744 63.5792C319.396 65.0641 317.517 66.9719 316.109 69.3027C314.7 71.6334 313.995 74.4153 313.995 77.6483C313.995 80.0166 314.305 82.0654 314.925 83.7947C315.545 85.524 316.447 87.0465 317.63 88.3622C318.813 89.678 320.279 90.834 322.025 91.8302C323.772 92.8264 325.792 93.7568 328.083 94.6214C329.511 95.1853 330.995 95.6928 332.535 96.1439C334.075 96.5951 335.493 97.1026 336.789 97.6665C338.085 98.2303 339.147 98.8882 339.973 99.6401C340.8 100.392 341.213 101.332 341.213 102.46C341.213 104.226 340.302 105.542 338.48 106.407C336.658 107.271 334.169 107.704 331.013 107.704C328.421 107.704 325.669 107.271 322.758 106.407C319.847 105.542 316.926 104.226 313.995 102.46V116.895C319.405 118.85 325.284 119.827 331.633 119.827ZM428.24 107.561C424.427 113.931 418.783 117.116 411.306 117.116C405.791 117.116 401.451 115.551 398.287 112.422C395.122 109.293 393.54 105.117 393.54 99.8959C393.54 88.8605 400.073 82.491 413.138 80.7876L428.573 78.7323C428.573 72.511 425.205 69.4003 418.468 69.4003C411.695 69.4003 405.254 71.4185 399.147 75.455V62.2347C401.59 60.9756 404.931 59.8646 409.169 58.9018C413.407 57.939 417.265 57.4576 420.745 57.4576C436.957 57.4576 445.063 65.549 445.063 81.7319V115.727H428.462V107.561H428.24ZM411.778 102.757C413.166 104.034 415.045 104.673 417.413 104.673C420.708 104.673 423.391 103.534 425.464 101.257C427.537 98.9794 428.573 96.1002 428.573 92.6192V88.7864L418.246 90.1196C412.546 90.8602 409.696 93.4339 409.696 97.8407C409.696 99.8404 410.39 101.479 411.778 102.757ZM472.18 117.145C469.837 117.825 467.689 118.02 464.663 118.02C453.143 118.02 447.774 112.677 447.774 102.574V30.3402H464.956V100.631C464.956 101.894 465.639 102.962 466.713 102.962C468.568 102.962 469.446 102.962 471.692 102.671H472.18V117.145Z" fill="#FEFEFE"/>
<path fill-rule="evenodd" clip-rule="evenodd" d="M81.9322 3.11909C81.9322 0.965815 84.0639 -0.538655 86.0927 0.182699L113.956 10.0896C115.976 10.8076 116.685 13.3024 115.344 14.9748L87.4807 49.7459C85.6393 52.0437 81.9322 50.7417 81.9322 47.797V3.11909ZM29.8086 37.39C27.5445 38.7055 27.8139 42.0576 30.259 42.9947L72.3003 59.1067C74.341 59.8888 76.532 58.3821 76.532 56.1966V15.6568C76.532 13.254 73.9275 11.755 71.8498 12.9622L29.8086 37.39ZM0.0104881 80.9715C-0.162178 83.1089 1.82516 84.778 3.90058 84.2387L66.2736 68.032C69.2092 67.2692 69.4359 63.188 66.6028 62.1047L7.36873 39.4562C5.42713 38.7138 3.31675 40.0443 3.14937 42.1162L0.0104881 80.9715ZM65.8995 79.2075C66.7338 76.851 64.5935 74.5207 62.1748 75.1519L20.2287 86.0989C17.88 86.7118 17.1027 89.6558 18.8427 91.3483L47.1612 118.893C48.7905 120.478 51.5134 119.842 52.272 117.699L65.8995 79.2075ZM89.4156 64.2729C87.134 63.8045 86.1538 61.0901 87.6097 59.272L116.962 22.6184C118.616 20.5522 121.931 21.3593 122.45 23.9549L131.358 68.4628C131.795 70.6503 129.86 72.5758 127.675 72.1272L89.4156 64.2729ZM93.1855 71.7872C90.2297 71.1781 88.2205 74.7062 90.2523 76.9377L128.504 118.948C130.284 120.903 133.536 119.893 133.896 117.275L138.462 84.0866C138.686 82.4611 137.611 80.9406 136.004 80.6095L93.1855 71.7872ZM76.0915 86.2516C76.0275 82.785 71.2011 81.998 70.0393 85.2647L53.2341 132.515C52.4226 134.797 54.4096 137.092 56.7839 136.615L74.3955 133.079C75.8723 132.782 76.9257 131.472 76.8979 129.966L76.0915 86.2516ZM82.0849 86.7004C82.0316 83.8328 85.553 82.4218 87.4946 84.5328L115.508 114.992C117.169 116.797 116.19 119.723 113.778 120.166L86.4232 125.192C84.5317 125.539 82.7799 124.108 82.7442 122.185L82.0849 86.7004Z" fill="#1DE9B6"/>
</svg>
