<?xml version="1.0" encoding="UTF-8"?>
<svg width="1600px" height="700px" viewBox="0 0 1600 700" version="1.1" xmlns="http://www.w3.org/2000/svg" xmlns:xlink="http://www.w3.org/1999/xlink">
    <title>Krystal_logo_1</title>
    <g id="Krystal_logo_1" stroke="none" stroke-width="1" fill="none" fill-rule="evenodd">
        <g id="Group-20" transform="translate(134.954442, 151.615693)">
            <g id="Group-2-Copy" transform="translate(443.983517, 26.591692)" fill="#0F0F0F" fill-rule="nonzero">
                <polygon id="Path-Copy-8" points="48.8441055 297.039289 48.8441055 218.591745 49.4623853 218.591745 100.00676 297.039289 158.588773 297.039289 97.842781 213.186895 150.744229 143.91818 168.364137 120.690648 110.400404 120.690648 93.4304135 143.829272 49.4623853 211.951501 48.8441055 211.951501 48.8441055 -1.03674543e-12 2.84217094e-14 12.5864105 2.84217094e-14 297.039289"></polygon>
                <path d="M214.748933,297.039289 L214.748933,221.306955 C214.748933,207.884728 217.722859,197.276007 223.670712,189.48079 C229.618565,181.685574 237.873774,177.787966 248.43634,177.787966 C253.632166,177.787966 274.028619,177.787966 309.6257,177.787966 L309.6257,138.450516 C276.468063,138.450516 258.998229,138.450516 257.216199,138.450516 C237.219108,138.450516 223.055417,146.400604 215.364228,167.876167 L214.748933,167.876167 L214.748933,138.450516 L166.140619,138.450516 L166.140619,297.039289 L214.748933,297.039289 Z" id="Path-Copy-9"></path>
                <path d="M309.42649,372.557752 C340.41864,372.557752 363.61144,351.869206 379.004892,310.492113 L443.041651,138.450516 L394.860147,138.450516 L365.150785,235.671129 C362.687833,243.656182 360.994554,250.656066 360.070946,256.670782 L359.455208,256.670782 C358.428978,248.478325 356.992256,241.374738 355.145042,235.360023 L326.827539,142.023427 C326.183741,139.901421 324.227339,138.450516 322.009821,138.450516 L271.866468,138.450516 L271.866468,138.450516 L335.903227,297.425662 L327.590763,317.180891 C322.664859,329.10662 313.941903,335.069484 301.421895,335.069484 C293.827792,335.069484 286.798116,333.150997 280.332866,329.314024 L280.332866,368.513375 C287.926969,371.209626 297.624844,372.557752 309.42649,372.557752 Z" id="Path-Copy-10"></path>
                <path d="M479.574268,307.108417 C489.199296,307.108417 498.484309,306.140022 507.429308,304.20323 C516.374307,302.266439 524.273107,299.178041 531.125708,294.938038 C537.978309,290.698035 543.470852,285.201735 547.603337,278.449137 C551.735822,271.69654 553.802064,263.556781 553.802064,254.02986 C553.802064,247.224917 552.78202,241.362196 550.741933,236.441699 C548.701846,231.521202 545.772489,227.228853 541.953864,223.564652 C538.135239,219.900452 533.55812,216.707364 528.222507,213.985386 C522.886893,211.263409 516.923561,208.750814 510.332509,206.447603 C506.670814,205.191306 502.982964,203.961181 499.268958,202.75723 C495.554953,201.553278 492.180962,200.19229 489.146986,198.674264 C486.11301,197.156238 483.654443,195.350311 481.771286,193.256482 C479.888128,191.162653 478.880656,189.907467 478.880656,186.976107 C478.880656,184.777587 479.574268,183.120987 480.829707,181.393578 C482.085145,179.66617 483.811373,178.252835 486.00839,177.153575 C488.205407,176.054315 490.742439,175.216784 493.619486,174.640981 C496.496532,174.065178 499.556663,173.777276 502.799879,173.777276 L544.072417,173.777276 L544.072417,138.450516 L500.759792,138.450516 C491.657863,138.450516 482.895949,139.418912 474.47405,141.355703 C466.052151,143.292495 458.57183,146.328547 452.033088,150.463858 C445.494347,154.59917 440.263353,159.91226 436.340108,166.403129 C432.416863,172.893998 430.455241,180.641164 430.455241,189.644628 C430.455241,196.240188 431.318355,201.945871 433.044582,206.761677 C434.77081,211.577483 437.281687,215.817486 440.577213,219.481687 C443.872739,223.145887 447.952914,226.365148 452.817737,229.139471 C457.682561,231.913794 463.305879,234.504907 469.687691,236.91281 C473.663246,238.483182 477.795731,239.896516 482.085145,241.152814 C486.37456,242.409111 490.32396,243.822445 493.933345,245.392817 C497.542731,246.963188 500.498242,248.795288 502.799879,250.889117 C505.101516,252.982946 506.252335,255.600232 506.252335,258.740975 C506.252335,263.661472 503.715303,267.325672 498.641239,269.733575 C493.567176,272.141478 486.636109,273.34543 477.848041,273.34543 C470.62927,273.34543 462.965865,272.141478 454.857825,269.733575 C446.749785,267.325672 438.61559,263.661472 430.455241,258.740975 L430.455241,298.942485 C445.520502,304.38644 461.893511,307.108417 479.574268,307.108417 Z" id="Path-Copy-11"></path>
                <path d="M614.071675,302.073853 C628.715105,302.073853 639.671714,300.156277 646.941502,296.321123 L646.941502,259.938993 C641.437234,262.944924 636.088747,264.447889 630.896042,264.447889 C617.706569,264.447889 611.111833,256.155666 611.111833,239.571219 L611.111833,173.754537 L646.941502,173.754537 L646.941502,138.450516 L611.111833,138.450516 L611.111833,90.622156 L562.040764,104.615283 L562.040764,138.450516 L536.181089,138.450516 L536.181089,173.754537 L562.040764,173.754537 L562.040764,248.122575 C562.040764,284.090094 579.384401,302.073853 614.071675,302.073853 Z" id="Path-Copy-12"></path>
                <path d="M727.738663,133.415952 C772.886985,133.415952 795.461147,155.949611 795.461147,201.01693 L795.461147,201.01693 L795.461147,295.689238 L749.230501,295.689238 L749.230501,272.949321 L748.612031,272.949321 L748.291988,273.478805 C737.680061,290.863982 722.067291,299.556571 701.45368,299.556571 C686.095004,299.556571 674.009066,295.199376 665.195866,286.484986 C656.382666,277.770596 651.976066,266.142815 651.976066,251.601644 C651.976066,220.869239 670.169397,203.131072 706.556059,198.387144 L706.556059,198.387144 L749.539736,192.663491 L749.536922,192.14632 C749.351196,175.16545 739.972003,166.675014 721.399343,166.675014 C702.536003,166.675014 684.600368,172.295538 667.592438,183.536586 L667.592438,183.536586 L667.592438,146.719577 L668.094692,146.463749 C674.850893,143.06252 683.986298,140.05393 695.500905,137.437978 C707.303377,134.756627 718.049297,133.415952 727.738663,133.415952 Z M749.539736,220.662981 L720.780873,224.37562 L720.287392,224.441738 C704.742312,226.588074 696.969772,233.733492 696.969772,245.877991 C696.969772,251.44695 698.902491,256.010403 702.767929,259.568349 C706.633368,263.126296 711.864595,264.905269 718.46161,264.905269 C727.635584,264.905269 735.108766,261.734056 740.881154,255.39163 C746.653542,249.049204 749.539736,241.030934 749.539736,231.33682 L749.539736,231.33682 L749.539736,220.662981 Z" id="Combined-Shape-Copy-2"></path>
                <path d="M850.045892,302.073853 C858.473752,302.073853 864.454815,301.532786 870.97961,299.639051 L870.97961,259.329545 L869.620278,259.329545 C863.367349,260.141146 860.920551,260.141146 855.755088,260.141146 C852.764557,260.141146 850.861491,257.165276 850.861491,253.64834 L850.861491,57.8974885 L803.012993,57.8974885 L803.012993,259.059012 C803.012993,287.194505 817.965649,302.073853 850.045892,302.073853 Z" id="Path-Copy-13"></path>
            </g>
            <g id="Group-17" fill="#1DE9B6">
                <path d="M203.067518,231.677785 C207.859975,231.589378 211.816697,235.402764 211.905104,240.195221 L211.905104,240.195221 L214.150836,361.9343 C214.228207,366.128491 211.294692,369.777716 207.181876,370.603528 L207.181876,370.603528 L158.1358,380.451481 C156.595173,380.760823 154.999466,380.646091 153.518941,380.119526 C149.002799,378.513312 146.643837,373.550161 148.250051,369.03402 L148.250051,369.03402 L195.050395,237.446988 C196.261236,234.042505 199.454736,231.74443 203.067518,231.677785 Z M231.398169,234.896088 C234.926154,231.65128 240.416588,231.880839 243.661397,235.408824 L243.661397,235.408824 L321.676675,320.23253 C322.78444,321.43697 323.529125,322.930051 323.824816,324.539519 C324.690941,329.253889 321.571321,333.777774 316.85695,334.643899 L316.85695,334.643899 L240.677757,348.639545 C240.213374,348.724862 239.742803,348.772141 239.27073,348.780912 C234.478284,348.869957 230.521055,345.057097 230.43201,340.264652 L230.43201,340.264652 L228.595925,241.4453 C228.549782,238.961813 229.569937,236.577576 231.398169,234.896088 Z M259.509956,199.913629 L378.753637,224.482693 C383.22912,225.404825 386.223013,229.639211 385.600194,234.166061 L372.884104,326.590798 C372.230785,331.339338 367.851712,334.659171 363.103172,334.005852 C361.089645,333.728824 359.237209,332.753908 357.868813,331.251069 L251.341222,214.257269 C248.114106,210.713093 248.371134,205.223876 251.91531,201.99676 C253.967999,200.127704 256.790941,199.353401 259.509956,199.913629 Z M183.737961,215.490188 C184.176277,217.169708 184.100918,218.942073 183.521621,220.578325 L145.570524,327.772935 C143.970815,332.291385 139.011067,334.657493 134.492617,333.057784 C133.311885,332.639759 132.235624,331.971116 131.337758,331.097783 L52.4742159,254.389063 C49.0382443,251.046974 48.9621374,245.55227 52.3042266,242.116299 C53.4082899,240.981221 54.8018487,240.169822 56.3339954,239.769968 L173.148634,209.284078 C177.786566,208.073686 182.527569,210.852256 183.737961,215.490188 Z M9.31424362,114.882822 C11.026113,110.405661 16.0433128,108.16395 20.5204731,109.875819 L20.5204731,109.875819 L185.48026,172.949194 C188.100676,173.951125 190.075174,176.1579 190.7807,178.873168 C191.98614,183.512389 189.20251,188.250423 184.563288,189.455863 L184.563288,189.455863 L10.8620869,234.589795 C9.9223782,234.833965 8.94835936,234.918726 7.98059916,234.840547 C3.2028911,234.454585 -0.357322396,230.268603 0.0286397519,225.490895 L0.0286397519,225.490895 L8.77005376,117.283589 C8.83646197,116.461542 9.01970132,115.653157 9.31424362,114.882822 Z M337.923387,61.6351401 C339.515899,62.9104186 340.60824,64.7059607 341.008609,66.7064944 L365.814726,190.655765 C366.755357,195.355837 363.707728,199.92853 359.007656,200.869161 C357.869161,201.097009 356.696522,201.094103 355.559171,200.860615 L249.011044,178.987214 C244.315693,178.023299 241.290765,173.435557 242.25468,168.740205 C242.531,167.394213 243.122958,166.133063 243.981849,165.060517 L325.723859,62.984647 C328.720009,59.2431844 334.181924,58.6389895 337.923387,61.6351401 Z M211.956982,39.2371972 C212.726455,40.5614951 213.131772,42.0658363 213.131772,43.5974544 L213.131772,156.495813 C213.131772,161.289085 209.246057,165.1748 204.452784,165.1748 C203.391047,165.1748 202.338321,164.979983 201.346899,164.600027 L84.2671197,119.729988 C79.7912855,118.014654 77.5534574,112.995721 79.2687909,108.519887 C79.9780062,106.669325 81.2991982,105.117221 83.0127485,104.121575 L200.092527,36.0932567 C204.236981,33.6851532 209.548879,35.0927433 211.956982,39.2371972 Z M228.67233,5.77385794 C230.278095,1.25755637 235.241011,-1.1018997 239.757312,0.5038653 L239.757312,0.5038653 L317.354258,28.093356 C318.266676,28.4177647 319.118367,28.8925855 319.874043,29.4981435 C323.614502,32.4955471 324.216867,37.9576639 321.219463,41.6981228 L321.219463,41.6981228 L243.622518,138.531321 C241.97536,140.586809 239.483856,141.783029 236.849818,141.783029 C232.056545,141.783029 228.17083,137.897314 228.17083,133.104042 L228.17083,133.104042 L228.17083,8.68135267 C228.17083,7.69066845 228.340447,6.70729719 228.67233,5.77385794 Z" id="Combined-Shape"></path>
            </g>
        </g>
    </g>
</svg>